<svg width="31" height="48" viewBox="0 0 31 48" fill="none" xmlns="http://www.w3.org/2000/svg">
<path d="M2.04884 10.1584C5.47846 2.3299 12.4247 0.124261 15.4691 0C20.0357 0.46598 23.2975 3.91423 24.8819 5.49857C30.0077 11.5563 30.1009 16.6821 30.1009 18.8256C28.1437 14.9114 25.7206 13.6998 24.8819 13.0474C28.6097 16.5516 29.9145 21.4662 30.1009 23.4854C30.1319 23.7029 30.1754 24.5478 30.1009 26.1881C30.0077 28.2384 28.7029 30.4751 28.5165 31.1275C28.3674 31.6494 26.5905 34.0165 25.7206 35.1349L23.1112 37.6512L21.154 39.1423L19.3833 40.3539C19.1037 40.5403 18.6564 40.6894 17.6126 41.6586C16.5688 42.6279 16.2457 43.5536 16.2146 43.8953V44.6409C16.1836 45.0137 16.4197 45.8152 17.6126 46.0388C19.1037 46.3184 19.4765 44.5477 19.7561 43.8953C19.9798 45.0137 19.3522 46.1631 19.0105 46.598C18.7309 47.0951 17.5753 48.0705 15.1895 47.996C12.8037 47.9214 11.8922 45.7909 11.7412 44.7341V43.5225C11.7412 41.5632 13.512 40.1675 14.1643 39.6083C14.6065 39.2294 16.3078 38.055 17.1466 37.558C17.3641 37.4337 18.3022 36.7565 20.3153 35.0417C23.018 31.5935 23.2975 30.1955 23.5771 27.4928C23.8567 24.7901 23.2975 24.0446 22.7384 21.9943C26.1866 25.9085 25.907 29.4499 25.7206 31.5003C26.4662 30.2887 27.8642 27.9588 26.7458 24.8833C25.6274 21.8079 23.018 20.4099 22.7384 20.0371C22.5147 19.7389 20.8434 18.7324 20.0357 18.2664C18.9173 17.614 16.457 16.2161 15.5623 15.8433C14.6676 15.4705 12.9528 14.1347 12.2072 13.5134C12.0519 13.4202 11.4244 12.8424 10.1569 11.2767C8.88944 9.71103 8.44831 7.95273 8.38618 7.26929C8.35511 6.92757 8.31162 6.0391 8.38618 5.21898C7.4915 6.48644 7.26783 7.92166 7.26783 8.48084V11.5563C7.19327 12.1528 6.80185 12.6125 6.61545 12.7679C6.3048 13.0474 5.60894 13.6625 5.31071 13.8862C5.01248 14.1099 5.18645 14.3522 5.31071 14.4454L6.42906 15.7501C6.46013 15.9987 6.42906 16.5703 6.05628 16.8685C6.35451 16.7194 6.80185 16.7442 6.98824 16.7753L8.85216 17.5209C8.51044 17.5519 7.71517 17.614 7.26783 17.614C6.33587 17.8936 6.52226 18.2664 6.52226 18.546C7.34238 18.7697 7.36102 19.1984 7.26783 19.3848C7.23676 19.5401 7.13735 19.9626 6.98824 20.4099C6.83913 21.5283 7.79594 21.6836 8.29298 21.6215C8.75896 21.6525 10.1569 21.6215 12.0208 21.2487C13.512 22.7398 13.2324 25.0697 13.2324 26.4677C13.3815 27.9588 12.1762 28.4559 11.5548 28.518C11.3685 28.549 10.8838 28.5925 10.4365 28.518C7.95013 27.505 6.82865 25.0362 6.35278 23.9886L6.33587 23.9514C6.33587 25.1629 7.26783 26.9337 7.54741 27.4928C6.33586 27.7724 -2.23817 19.944 2.04884 10.1584Z" fill="#52493E"/>
</svg>
