<svg width="32" height="33" viewBox="0 0 32 33" fill="none" xmlns="http://www.w3.org/2000/svg">
<path d="M16 15.8334C15.1159 15.8334 14.2681 15.4822 13.643 14.8571C13.0178 14.232 12.6667 13.3841 12.6667 12.5001C12.6667 11.616 13.0178 10.7682 13.643 10.1431C14.2681 9.51794 15.1159 9.16675 16 9.16675C16.884 9.16675 17.7319 9.51794 18.357 10.1431C18.9821 10.7682 19.3333 11.616 19.3333 12.5001C19.3333 12.9378 19.2471 13.3713 19.0796 13.7757C18.9121 14.1801 18.6665 14.5476 18.357 14.8571C18.0475 15.1666 17.68 15.4122 17.2756 15.5797C16.8712 15.7472 16.4377 15.8334 16 15.8334ZM16 3.16675C13.5246 3.16675 11.1507 4.15008 9.40033 5.90042C7.64999 7.65076 6.66666 10.0247 6.66666 12.5001C6.66666 19.5001 16 29.8334 16 29.8334C16 29.8334 25.3333 19.5001 25.3333 12.5001C25.3333 10.0247 24.35 7.65076 22.5997 5.90042C20.8493 4.15008 18.4753 3.16675 16 3.16675Z" fill="#A69888"/>
</svg>
