<svg width="1280" height="16" viewBox="0 0 1280 16" fill="none" xmlns="http://www.w3.org/2000/svg">
<path d="M-359.917 5.33333C-360.139 4.44444 -360.139 3.33333 -359.917 2V5.33333C-358.806 9.77778 -352.139 8.66667 -339.917 2C-341.25 10 -334.583 10 -319.917 2C-321.25 10 -314.583 10 -299.917 2C-301.25 10 -294.583 10 -279.917 2C-281.25 10 -274.583 10 -259.917 2C-261.25 10 -254.583 10 -239.917 2C-241.25 10 -234.583 10 -219.917 2C-221.25 10 -214.583 10 -199.917 2C-201.25 10 -194.583 10 -179.917 2C-181.25 10 -174.583 10 -159.917 2C-161.25 10 -154.583 10 -139.917 2C-141.25 10 -134.583 10 -119.917 2C-121.25 10 -114.583 10 -99.9167 2C-101.25 10 -94.5833 10 -79.9167 2C-81.25 10 -74.5833 10 -59.9167 2C-61.25 10 -54.5833 10 -39.9167 2C-41.25 10 -34.5833 10 -19.9167 2C-21.25 10 -14.5833 10 0.0833435 2C-1.25 10 5.41669 10 20.0833 2C18.75 10 25.4167 10 40.0833 2C38.75 10 45.4167 10 60.0833 2C58.75 10 65.4167 10 80.0833 2C78.75 10 85.4167 10 100.083 2C98.75 10 105.417 10 120.083 2C118.75 10 125.417 10 140.083 2C138.75 10 145.417 10 160.083 2C158.75 10 165.417 10 180.083 2C178.75 10 185.417 10 200.083 2C198.75 10 205.417 10 220.083 2C218.75 10 225.417 10 240.083 2C238.75 10 245.417 10 260.083 2C258.75 10 265.417 10 280.083 2C278.75 10 285.417 10 300.083 2C298.75 10 305.417 10 320.083 2C318.75 10 325.417 10 340.083 2C338.75 10 345.417 10 360.083 2C358.75 10 365.417 10 380.083 2C378.75 10 385.417 10 400.083 2C398.75 10 405.417 10 420.083 2C418.75 10 425.417 10 440.083 2C438.75 10 445.417 10 460.083 2C458.75 10 465.417 10 480.083 2C478.75 10 485.417 10 500.083 2C498.75 10 505.417 10 520.083 2C518.75 10 525.417 10 540.083 2C538.75 10 545.417 10 560.083 2C558.75 10 565.417 10 580.083 2C578.75 10 585.417 10 600.083 2C598.75 10 605.417 10 620.083 2C618.75 10 625.417 10 640.083 2C638.75 10 645.417 10 660.083 2C658.75 10 665.417 10 680.083 2C678.75 10 685.417 10 700.083 2C698.75 10 705.417 10 720.083 2C718.75 10 725.417 10 740.083 2C738.75 10 745.417 10 760.083 2C758.75 10 765.417 10 780.083 2C778.75 10 785.417 10 800.083 2C798.75 10 805.417 10 820.083 2C818.75 10 825.417 10 840.083 2C838.75 10 845.417 10 860.083 2C858.75 10 865.417 10 880.083 2C878.75 10 885.417 10 900.083 2C898.75 10 905.417 10 920.083 2C918.75 10 925.417 10 940.083 2C938.75 10 945.417 10 960.083 2C958.75 10 965.417 10 980.083 2C978.75 10 985.417 10 1000.08 2C998.75 10 1005.42 10 1020.08 2C1018.75 10 1025.42 10 1040.08 2C1038.75 10 1045.42 10 1060.08 2C1058.75 10 1065.42 10 1080.08 2C1078.75 10 1085.42 10 1100.08 2C1098.75 10 1105.42 10 1120.08 2C1118.75 10 1125.42 10 1140.08 2C1138.75 10 1145.42 10 1160.08 2C1158.75 10 1165.42 10 1180.08 2C1178.75 10 1185.42 10 1200.08 2C1198.75 10 1205.42 10 1220.08 2C1218.75 10 1225.42 10 1240.08 2C1238.75 10 1245.42 10 1260.08 2C1258.75 10 1265.42 10 1280.08 2C1278.75 10 1285.42 10 1300.08 2C1298.75 10 1305.42 10 1320.08 2C1318.75 10 1325.42 10 1340.08 2C1338.75 10 1345.42 10 1360.08 2C1358.75 10 1365.42 10 1380.08 2C1378.75 10 1385.42 10 1400.08 2C1398.75 10 1405.42 10 1420.08 2C1418.75 10 1425.42 10 1440.08 2C1438.75 10 1445.42 10 1460.08 2C1458.75 10 1465.42 10 1480.08 2C1478.75 10 1485.42 10 1500.08 2C1498.75 10 1505.42 10 1520.08 2C1518.75 10 1525.42 10 1540.08 2C1538.75 10 1545.42 10 1560.08 2C1558.75 10 1565.42 10 1580.08 2C1578.75 10 1585.42 10 1600.08 2C1598.75 10 1605.42 10 1620.08 2C1618.75 10 1625.42 10 1640.08 2V15H-359.917V5.33333Z" fill="#52493E"/>
<path d="M-359.917 2C-361.25 10 -354.583 10 -339.917 2C-341.25 10 -334.583 10 -319.917 2C-321.25 10 -314.583 10 -299.917 2C-301.25 10 -294.583 10 -279.917 2C-281.25 10 -274.583 10 -259.917 2C-261.25 10 -254.583 10 -239.917 2C-241.25 10 -234.583 10 -219.917 2C-221.25 10 -214.583 10 -199.917 2C-201.25 10 -194.583 10 -179.917 2C-181.25 10 -174.583 10 -159.917 2C-161.25 10 -154.583 10 -139.917 2C-141.25 10 -134.583 10 -119.917 2C-121.25 10 -114.583 10 -99.9167 2C-101.25 10 -94.5833 10 -79.9167 2C-81.25 10 -74.5833 10 -59.9167 2C-61.25 10 -54.5833 10 -39.9167 2C-41.25 10 -34.5833 10 -19.9167 2C-21.25 10 -14.5833 10 0.0833435 2C-1.24999 10 5.41668 10 20.0833 2C18.75 10 25.4167 10 40.0833 2C38.75 10 45.4167 10 60.0833 2C58.75 10 65.4167 10 80.0833 2C78.75 10 85.4167 10 100.083 2C98.75 10 105.417 10 120.083 2C118.75 10 125.417 10 140.083 2C138.75 10 145.417 10 160.083 2C158.75 10 165.417 10 180.083 2C178.75 10 185.417 10 200.083 2C198.75 10 205.417 10 220.083 2C218.75 10 225.417 10 240.083 2C238.75 10 245.417 10 260.083 2C258.75 10 265.417 10 280.083 2C278.75 10 285.417 10 300.083 2C298.75 10 305.417 10 320.083 2C318.75 10 325.417 10 340.083 2C338.75 10 345.417 10 360.083 2C358.75 10 365.417 10 380.083 2C378.75 10 385.417 10 400.083 2C398.75 10 405.417 10 420.083 2C418.75 10 425.417 10 440.083 2C438.75 10 445.417 10 460.083 2C458.75 10 465.417 10 480.083 2C478.75 10 485.417 10 500.083 2C498.75 10 505.417 10 520.083 2C518.75 10 525.417 10 540.083 2C538.75 10 545.417 10 560.083 2C558.75 10 565.417 10 580.083 2C578.75 10 585.417 10 600.083 2C598.75 10 605.417 10 620.083 2C618.75 10 625.417 10 640.083 2C638.75 10 645.417 10 660.083 2C658.75 10 665.417 10 680.083 2C678.75 10 685.417 10 700.083 2C698.75 10 705.417 10 720.083 2C718.75 10 725.417 10 740.083 2C738.75 10 745.417 10 760.083 2C758.75 10 765.417 10 780.083 2C778.75 10 785.417 10 800.083 2C798.75 10 805.417 10 820.083 2C818.75 10 825.417 10 840.083 2C838.75 10 845.417 10 860.083 2C858.75 10 865.417 10 880.083 2C878.75 10 885.417 10 900.083 2C898.75 10 905.417 10 920.083 2C918.75 10 925.417 10 940.083 2C938.75 10 945.417 10 960.083 2C958.75 10 965.417 10 980.083 2C978.75 10 985.417 10 1000.08 2C998.75 10 1005.42 10 1020.08 2C1018.75 10 1025.42 10 1040.08 2C1038.75 10 1045.42 10 1060.08 2C1058.75 10 1065.42 10 1080.08 2C1078.75 10 1085.42 10 1100.08 2C1098.75 10 1105.42 10 1120.08 2C1118.75 10 1125.42 10 1140.08 2C1138.75 10 1145.42 10 1160.08 2C1158.75 10 1165.42 10 1180.08 2C1178.75 10 1185.42 10 1200.08 2C1198.75 10 1205.42 10 1220.08 2C1218.75 10 1225.42 10 1240.08 2C1238.75 10 1245.42 10 1260.08 2C1258.75 10 1265.42 10 1280.08 2C1278.75 10 1285.42 10 1300.08 2C1298.75 10 1305.42 10 1320.08 2C1318.75 10 1325.42 10 1340.08 2C1338.75 10 1345.42 10 1360.08 2C1358.75 10 1365.42 10 1380.08 2C1378.75 10 1385.42 10 1400.08 2C1398.75 10 1405.42 10 1420.08 2C1418.75 10 1425.42 10 1440.08 2C1438.75 10 1445.42 10 1460.08 2C1458.75 10 1465.42 10 1480.08 2C1478.75 10 1485.42 10 1500.08 2C1498.75 10 1505.42 10 1520.08 2C1518.75 10 1525.42 10 1540.08 2C1538.75 10 1545.42 10 1560.08 2C1558.75 10 1565.42 10 1580.08 2C1578.75 10 1585.42 10 1600.08 2C1598.75 10 1605.42 10 1620.08 2C1618.75 10 1625.42 10 1640.08 2V15H-359.917V2Z" stroke="#52493E" stroke-width="2"/>
</svg>
