<svg width="318" height="9" viewBox="0 0 318 9" fill="none" xmlns="http://www.w3.org/2000/svg">
<path d="M-41.3333 4.50012C-34.6667 -0.166544 -28 -0.166544 -21.3333 4.50012C-14.6667 9.16679 -7.99999 9.16679 -1.33333 4.50012C5.33334 -0.166544 12 -0.166544 18.6667 4.50012C25.3333 9.16679 32 9.16679 38.6667 4.50012C45.3333 -0.166544 52 -0.166544 58.6667 4.50012C65.3333 9.16679 72 9.16679 78.6667 4.50012C85.3333 -0.166544 92 -0.166544 98.6667 4.50012C105.333 9.16679 112 9.16679 118.667 4.50012C125.333 -0.166544 132 -0.166544 138.667 4.50012C145.333 9.16679 152 9.16679 158.667 4.50012C165.333 -0.166544 172 -0.166544 178.667 4.50012C185.333 9.16679 192 9.16679 198.667 4.50012C205.333 -0.166544 212 -0.166544 218.667 4.50012C225.333 9.16679 232 9.16679 238.667 4.50012C245.333 -0.166544 252 -0.166544 258.667 4.50012C265.333 9.16679 272 9.16679 278.667 4.50012C285.333 -0.166544 292 -0.166544 298.667 4.50012C305.333 9.16679 312 9.16679 318.667 4.50012C325.333 -0.166544 332 -0.166544 338.667 4.50012C345.333 9.16679 352 9.16679 358.667 4.50012" stroke="#DFB139" stroke-opacity="0.3" stroke-width="2"/>
</svg>
