<svg width="10" height="11" viewBox="0 0 10 11" fill="none" xmlns="http://www.w3.org/2000/svg">
<g clip-path="url(#clip0_81_306)">
<path d="M5.0201 0.5C2.27638 0.5 0.0402011 2.725 0.0402011 5.455C0.0402011 6.33 0.271357 7.18 0.703518 7.93L0 10.5L2.63819 9.81C3.36683 10.205 4.18593 10.415 5.0201 10.415C7.76382 10.415 10 8.19 10 5.46C10 4.135 9.48241 2.89 8.54271 1.955C7.60301 1.015 6.35176 0.5 5.0201 0.5ZM5.02513 1.335C6.13065 1.335 7.16583 1.765 7.94975 2.545C8.72864 3.325 9.1608 4.36 9.1608 5.46C9.1608 7.73 7.30151 9.575 5.0201 9.575C4.27638 9.575 3.54774 9.38 2.91457 9L2.76382 8.915L1.19598 9.325L1.61307 7.805L1.51256 7.645C1.1005 7 0.879397 6.235 0.879397 5.455C0.884422 3.185 2.73869 1.335 5.02513 1.335ZM3.25628 3.165C3.17588 3.165 3.0402 3.195 2.92462 3.32C2.81407 3.445 2.48744 3.75 2.48744 4.355C2.48744 4.965 2.93467 5.55 2.98995 5.635C3.0603 5.72 3.87437 6.97 5.12563 7.5C5.42211 7.635 5.65327 7.71 5.83417 7.765C6.13065 7.86 6.40201 7.845 6.61809 7.815C6.8593 7.78 7.35176 7.515 7.45729 7.225C7.56281 6.935 7.56281 6.69 7.53266 6.635C7.49749 6.585 7.41708 6.555 7.29146 6.5C7.16583 6.43 6.55276 6.13 6.44221 6.09C6.32663 6.05 6.25628 6.03 6.1608 6.15C6.0804 6.275 5.8392 6.555 5.76884 6.635C5.69347 6.72 5.62311 6.73 5.50251 6.67C5.37186 6.605 4.96985 6.475 4.49749 6.055C4.12563 5.725 3.8794 5.32 3.80402 5.195C3.74372 5.075 3.79899 5 3.8593 4.945C3.91457 4.89 3.99497 4.8 4.04523 4.725C4.11055 4.655 4.13065 4.6 4.17085 4.52C4.21105 4.435 4.19095 4.365 4.1608 4.305C4.13065 4.25 3.8794 3.63 3.77387 3.385C3.67337 3.145 3.57286 3.175 3.49246 3.17C3.42211 3.17 3.34171 3.165 3.25628 3.165Z" fill="#7E7367"/>
</g>
<defs>
<clipPath id="clip0_81_306">
<rect width="10" height="10" fill="white" transform="translate(0 0.5)"/>
</clipPath>
</defs>
</svg>
